<svg xmlns="http://www.w3.org/2000/svg" viewBox="0 0 32 32" role="img" aria-label="Svelte UI Template">
  <rect width="32" height="32" rx="7" fill="#2f6feb" />
  <path d="M11 21.5c2.6 2 6.3 1.6 8.2-1.1 1.9-2.7 1-5.7-1.6-7.4l-2.6-1.7c-.9-.6-1.2-1.5-.6-2.4.6-.9 1.7-1 2.7-.4l1 .6" fill="none" stroke="#fff" stroke-width="2.2" stroke-linecap="round" />
  <path d="M21 10.5c-2.6-2-6.3-1.6-8.2 1.1-1.9 2.7-1 5.7 1.6 7.4l2.6 1.7c.9.6 1.2 1.5.6 2.4-.6.9-1.7 1-2.7.4l-1-.6" fill="none" stroke="#fff" stroke-width="2.2" stroke-linecap="round" opacity="0.65" />
</svg>
